<?xml version="1.0" standalone="no"?>
<!DOCTYPE svg PUBLIC "-//W3C//DTD SVG 20010904//EN"
 "http://www.w3.org/TR/2001/REC-SVG-20010904/DTD/svg10.dtd">
<svg version="1.0" xmlns="http://www.w3.org/2000/svg"
 width="700.000000pt" height="700.000000pt" viewBox="0 0 700.000000 700.000000"
 preserveAspectRatio="xMidYMid meet">
<metadata>
Created by potrace 1.14, written by Peter Selinger 2001-2017
</metadata>
<g transform="translate(0.000000,700.000000) scale(0.100000,-0.100000)"
fill="#000000" stroke="none">
<path d="M3038 6995 c-2 -2 -66 -6 -143 -9 -77 -3 -165 -8 -195 -10 -30 -3
-94 -7 -141 -11 -47 -3 -96 -7 -110 -9 -13 -3 -55 -7 -93 -11 -38 -4 -79 -8
-90 -10 -12 -2 -57 -9 -101 -15 -281 -39 -586 -115 -795 -197 -346 -136 -629
-342 -825 -602 -160 -211 -290 -498 -376 -829 -32 -125 -84 -393 -94 -487 -4
-33 -8 -67 -10 -75 -2 -8 -7 -46 -11 -85 -3 -38 -8 -78 -10 -88 -2 -11 -6 -62
-9 -115 -4 -54 -8 -113 -10 -132 -20 -202 -27 -1142 -11 -1440 12 -228 21
-339 31 -435 3 -22 7 -62 11 -90 5 -51 31 -235 40 -290 31 -192 120 -541 163
-640 5 -11 19 -47 32 -80 35 -95 134 -282 201 -380 269 -398 669 -650 1261
-795 67 -17 133 -32 147 -35 14 -2 49 -9 79 -15 89 -17 91 -16 76 26 -8 25
-13 107 -13 253 0 197 -2 217 -19 229 -10 7 -67 45 -127 84 -60 39 -116 76
-125 84 -9 7 -59 47 -111 89 -422 339 -740 797 -924 1331 -31 93 -88 305 -101
379 -2 17 -9 55 -14 85 -23 131 -35 284 -34 430 0 83 4 114 20 150 26 59 87
121 149 151 l49 24 2695 0 2695 0 48 -22 c58 -27 123 -93 150 -153 16 -37 20
-66 20 -165 0 -155 -9 -257 -33 -405 -5 -30 -12 -71 -15 -90 -3 -19 -15 -73
-26 -120 -11 -47 -22 -93 -24 -103 -2 -9 -27 -85 -55 -168 -49 -146 -70 -197
-148 -359 -37 -78 -166 -299 -210 -360 -55 -75 -107 -145 -112 -150 -3 -3 -29
-34 -59 -70 -168 -206 -381 -395 -621 -554 -63 -42 -123 -81 -134 -88 -17 -12
-18 -30 -18 -218 1 -188 -4 -247 -22 -291 -6 -15 -2 -16 41 -8 344 65 591 140
811 245 109 52 277 151 304 178 7 7 21 17 30 22 58 32 249 223 328 327 90 120
184 283 245 427 82 193 177 540 211 770 3 19 9 60 14 90 5 30 14 98 20 150 6
52 13 109 15 125 2 17 7 73 10 125 4 52 9 111 10 130 27 280 27 1281 0 1620
-2 25 -6 82 -9 128 -4 45 -8 97 -11 115 -2 18 -7 59 -10 92 -3 33 -8 74 -10
90 -3 17 -7 48 -10 70 -26 191 -75 427 -120 580 -253 860 -751 1294 -1711
1491 -71 14 -140 27 -154 29 -23 2 -88 12 -134 21 -10 2 -44 6 -75 9 -31 3
-67 8 -81 10 -14 3 -56 7 -95 10 -38 4 -90 8 -115 10 -25 3 -90 7 -145 11 -55
3 -122 8 -150 10 -56 5 -1102 14 -1107 9z m-998 -1262 c2 -163 9 -385 15 -413
22 -117 100 -267 186 -360 91 -99 107 -118 156 -190 112 -167 184 -350 214
-550 13 -88 19 -489 7 -496 -7 -4 -288 -7 -515 -5 l-61 1 0 188 c-1 236 -12
305 -72 438 -30 65 -64 114 -140 199 -147 164 -245 326 -301 498 -60 180 -72
282 -70 575 l1 142 290 0 290 0 0 -27z m1171 -160 c0 -104 2 -196 4 -205 2 -9
6 -35 9 -57 14 -102 99 -258 201 -369 107 -116 168 -204 233 -337 100 -204
129 -349 131 -662 2 -209 1 -223 -16 -224 -84 -2 -555 0 -558 3 -1 1 -5 102
-8 223 -6 240 -13 285 -70 404 -37 80 -64 117 -153 217 -181 202 -283 403
-335 662 -18 87 -22 147 -23 320 l-2 212 293 0 293 0 1 -187z m1165 7 c1 -199
7 -260 36 -345 41 -119 81 -181 221 -341 170 -195 265 -400 314 -684 2 -14 6
-130 9 -257 l4 -233 -37 0 c-64 -1 -455 -1 -503 -1 l-45 1 -1 203 c0 114 -6
226 -13 257 -29 137 -106 279 -208 385 -172 179 -310 450 -339 668 -2 15 -6
39 -10 55 -3 15 -8 127 -11 250 l-5 222 293 -2 294 -3 1 -175z"/>
</g>
</svg>
