<svg xmlns="http://www.w3.org/2000/svg" viewBox="0 0 500 500"><path d="M431.67 117.79a13.29 13.29 0 0 0 7.92-12.29c0-7.34-5.53-13.31-12.41-13.34s-12.48 5.89-12.51 13.23a13.27 13.27 0 0 0 7.94 12.4c-19.17 2.89-18.3 23.73-18.3 23.73l45.33.21s1.04-21.07-17.97-23.94ZM163.82 39.92l-29.63-10.48-29.34 10.34c-3.74 1.74-7 2.78-7 6.22v17.11a63.92 63.92 0 0 0 9.67 34 59.88 59.88 0 0 0 27 23.48c12-3.84 20.94-14.06 26.42-22.81a64 64 0 0 0 9.66-34V48.39c-.04-4.9-2.68-7.29-6.78-8.47Z" style="fill:#f5f5f5"/><path d="M144 67.54a8.2 8.2 0 1 0-10.44 7.85v12.27h4.48V75.39a8.17 8.17 0 0 0 5.96-7.85Z" style="fill:#ebebeb"/><path d="m415.74 198.49 5.05 2.74-2.27 3.8-5.1-3 .1 5.61h-4.36v-5.66l-5.05 3.02-2.23-3.8 5.05-2.74-5.05-2.78 2.23-3.8 5.09 3.12v-5.66h4.36l-.1 5.66 5.1-3.06 2.27 3.8ZM436.78 198.49l5.05 2.74-2.27 3.8-5.1-3 .1 5.61h-4.36l.05-5.66-5.1 3.06-2.23-3.8 5.05-2.74-5.05-2.78 2.23-3.8 5.1 3.06-.05-5.66h4.36l-.1 5.66 5.1-3.06 2.27 3.8ZM457.82 198.49l5.06 2.74-2.27 3.8-5.1-3 .09 5.61h-4.36l.05-5.66-5.1 3.06-2.23-3.8 5.06-2.74-5.02-2.79 2.23-3.8 5.1 3.06-.05-5.66h4.36l-.09 5.66 5.1-3.06 2.27 3.8Z" style="fill:#e0e0e0"/><path style="fill:#f5f5f5" d="M243.74 437.86v31.06H339.26v-31.06h-95.52z"/><path style="fill:#ebebeb" d="M239.73 429.17v8.69H342.6v-8.69H239.73z"/><path style="fill:#ebebeb" d="M291.16 468.92h48.1v-31.06h3.34v-8.69h-53.44v7.88l2 31.87z"/><path style="fill:#e0e0e0" d="M257.1 442.86h19.37v4.68H257.1z"/><path style="fill:#fff" d="M254.6 453.39h24.88v9.87H254.6z"/><path style="fill:#f5f5f5" d="M258.43 398.15v31.06h95.53v-31.06h-95.53z"/><path style="fill:#ebebeb" d="M254.42 389.46v8.69H357.3v-8.69H254.42z"/><path style="fill:#ebebeb" d="M305.86 429.21h48.1v-31.06h3.34v-8.69h-53.44v7.89l2 31.86z"/><path style="fill:#e0e0e0" d="M271.79 403.16h19.37v4.68h-19.37z"/><path style="fill:#fff" d="M269.3 413.68h24.88v9.87H269.3z"/><path d="M464.07 469.16c0 .14-95.85.26-214.06.26s-214.08-.12-214.08-.26 95.83-.26 214.08-.26 214.06.1 214.06.26Z" style="fill:#263238"/><rect x="243.39" y="245.72" width="161.78" height="89.9" rx="6.38" style="fill:#fff"/><path d="M398.8 335.62s.43 0 1.25-.15a6.48 6.48 0 0 0 3.21-1.75 6.34 6.34 0 0 0 1.45-2.28 6.71 6.71 0 0 0 .36-1.53v-10c0-12.47-.05-30.49-.08-52.76v-12.97c0-1.49.15-3-.46-4.38a6.18 6.18 0 0 0-5.11-3.84c-.74-.05-1.56 0-2.34 0H249.79a6.12 6.12 0 0 0-5.14 2.78 6.05 6.05 0 0 0-1 2.84c-.05 1 0 2.1 0 3.14v74.83a6.29 6.29 0 0 0 .7 2.58 6.22 6.22 0 0 0 4.14 3.11 12.57 12.57 0 0 0 2.69.14H326.69l52.76.08 14.34.05h5.01-5.01l-14.34.05-52.76.08H251.18a13.24 13.24 0 0 1-2.79-.15 6.65 6.65 0 0 1-4.46-3.36 6.57 6.57 0 0 1-.77-2.78v-77.78a6.65 6.65 0 0 1 1-3.08 6.81 6.81 0 0 1 2.4-2.22 6.92 6.92 0 0 1 3.18-.81h149.67a6.58 6.58 0 0 1 2.3.68 6.65 6.65 0 0 1 3.15 3.42 6.35 6.35 0 0 1 .46 2.28v15.22c0 22.27-.07 40.29-.09 52.76v10.01a6.72 6.72 0 0 1-.38 1.56 6.37 6.37 0 0 1-1.49 2.31 6.45 6.45 0 0 1-3.28 1.73 6 6 0 0 1-.94.1Z" style="fill:#263238"/><path d="M299.76 277.49v1.12h-4.68v-6h4.56v1.12h-3.17V275h2.8v1.09h-2.8v1.4ZM306.42 272.57v6h-1.15l-3-3.67v3.67h-1.38v-6H302l3 3.67v-3.67ZM309.11 273.71h-1.94v-1.14h5.27v1.14h-1.94v4.9h-1.39ZM317.87 277.49v1.12h-4.68v-6h4.57v1.12h-3.18V275h2.81v1.09h-2.81v1.4ZM322.84 278.61l-1.17-1.68h-1.28v1.68H319v-6h2.62c1.61 0 2.62.83 2.62 2.19a2 2 0 0 1-1.24 1.91l1.35 1.94Zm-1.31-4.9h-1.14v2.1h1.14c.85 0 1.28-.39 1.28-1.05s-.43-1.05-1.28-1.05ZM327.4 275.59a3.33 3.33 0 0 1 5.77-2.06l-.9.83a2 2 0 0 0-1.52-.71 1.94 1.94 0 0 0 0 3.87 1.92 1.92 0 0 0 1.52-.71l.9.83a3.32 3.32 0 0 1-5.77-2.05ZM333.61 275.59a3.31 3.31 0 1 1 3.3 3.13 3.12 3.12 0 0 1-3.3-3.13Zm5.19 0a1.89 1.89 0 1 0-1.89 1.93 1.85 1.85 0 0 0 1.89-1.93ZM341.28 272.57H344a3 3 0 1 1 0 6h-2.74Zm2.67 4.89a1.87 1.87 0 1 0 0-3.74h-1.27v3.74ZM353.09 277.49v1.12h-4.68v-6H353v1.12h-3.2V275h2.81v1.09h-2.81v1.4Z" style="fill:#263238"/><rect x="258.18" y="288.26" width="22.59" height="30.77" rx="3.95" style="fill:#ebebeb"/><rect x="286.39" y="288.26" width="22.59" height="30.77" rx="3.95" style="fill:#ebebeb"/><rect x="314.6" y="288.26" width="22.59" height="30.77" rx="3.95" style="fill:#ebebeb"/><rect x="342.8" y="288.26" width="22.59" height="30.77" rx="3.95" style="fill:#ebebeb"/><rect x="371.01" y="288.26" width="22.59" height="30.77" rx="3.95" style="fill:#ebebeb"/><path d="M274.4 306c0 2.19-1.7 3.62-4 3.62-3.16 0-4.83-2.27-4.83-6 0-4.06 2.17-6.16 5.34-6.16a5.28 5.28 0 0 1 2.73.62l-.36.7a4.5 4.5 0 0 0-2.37-.55c-2.69 0-4.46 1.77-4.46 5.26a10.33 10.33 0 0 0 .1 1.44 3.77 3.77 0 0 1 3.83-2.47c2.4 0 4.02 1.4 4.02 3.54Zm-.88 0c0-1.71-1.23-2.83-3.26-2.83a3 3 0 0 0-3.33 2.87c0 1.41 1.18 2.81 3.43 2.81a2.85 2.85 0 0 0 3.16-2.85ZM302.3 306.23h-2.52v3.33h-.86v-3.33h-6.85v-.63l6.52-8.05h1l-6.4 7.91h5.77v-2.93h.84v2.93h2.52ZM331.39 311.27a52.83 52.83 0 0 1-10.47 0 52.83 52.83 0 0 1 10.47 0Z" style="fill:#07f"/><circle cx="253.66" cy="254.7" r="2.45" style="fill:#263238"/><path d="M263.17 254.7a2.45 2.45 0 1 1-2.45-2.45 2.45 2.45 0 0 1 2.45 2.45Z" style="fill:#263238"/><circle cx="267.65" cy="254.7" r="2.45" style="fill:#263238"/><path d="M405.42 261.6c0 .14-36.23.26-80.9.26s-80.9-.12-80.9-.26 36.21-.26 80.9-.26 80.9.11 80.9.26Z" style="fill:#263238"/><rect x="190.51" y="48.29" width="191.76" height="177.47" rx="6.56" style="fill:#fff"/><path d="M375.71 225.76h.47a6.65 6.65 0 0 0 1.37-.26 6.53 6.53 0 0 0 4-3.47 7.94 7.94 0 0 0 .62-3.94V200.96c0-18.4-.05-45-.09-77.92V54.5a6.33 6.33 0 0 0-4.1-5.54 9.42 9.42 0 0 0-3.69-.4h-177.2a6.33 6.33 0 0 0-4.09 1.53 6.26 6.26 0 0 0-2.16 3.91 19.37 19.37 0 0 0-.07 2.3V219.82a6.5 6.5 0 0 0 .43 1.79 6.33 6.33 0 0 0 2.27 2.84 6.23 6.23 0 0 0 3.43 1.12H269.22l77.92.09H375.71h-7.39l-21.18.05-77.92.08h-72.33a6.77 6.77 0 0 1-6.11-4.24 7.1 7.1 0 0 1-.47-1.92c-.05-.68 0-1.3 0-1.95V56.25a17.33 17.33 0 0 1 .08-2.37 6.67 6.67 0 0 1 2.28-4.18 6.88 6.88 0 0 1 4.42-1.7h177.14a9.76 9.76 0 0 1 3.85.44 6.78 6.78 0 0 1 4.39 5.93V122.94c0 32.9-.06 59.52-.08 77.92V217.99a8 8 0 0 1-.66 4 6.54 6.54 0 0 1-5.49 3.71Z" style="fill:#263238"/><path d="M205 60.59a3.32 3.32 0 1 1-3.31-3.32 3.31 3.31 0 0 1 3.31 3.32Z" style="fill:#263238"/><circle cx="211.35" cy="60.59" r="3.31" style="fill:#263238"/><circle cx="221.03" cy="60.59" r="3.31" style="fill:#263238"/><path d="M382.27 70c0 .15-42.93.26-95.88.26s-95.88-.11-95.88-.26 42.92-.26 95.88-.26 95.88.11 95.88.26Z" style="fill:#263238"/><path d="M313.48 136.85s.07-.11.23-.31l.13-.17.13-.23a4.46 4.46 0 0 0 .29-.58c0-.11.1-.23.14-.36l.12-.42a3.56 3.56 0 0 0 .1-.47c0-.17.06-.34.07-.52a9.88 9.88 0 0 0-.12-2.49 22 22 0 0 0-2.28-6.43 50.66 50.66 0 0 0-4.91-7.63 78.08 78.08 0 0 0-7.31-8.22 89.82 89.82 0 0 0-9.61-8.19 73.62 73.62 0 0 0-5.67-3.8 54.63 54.63 0 0 0-6.31-3.31 29.73 29.73 0 0 0-7-2.2 12.34 12.34 0 0 0-3.74-.09 6.81 6.81 0 0 0-1.81.52 5.31 5.31 0 0 0-1.51 1.11 5 5 0 0 0-.94 1.63 6.9 6.9 0 0 0-.31 1.86 12.55 12.55 0 0 0 .51 3.71 29.66 29.66 0 0 0 3 6.72 53.84 53.84 0 0 0 4 5.89c1.42 1.84 2.91 3.58 4.42 5.21a89 89 0 0 0 9.24 8.61 77.5 77.5 0 0 0 9 6.33 50.69 50.69 0 0 0 8.14 4 22.53 22.53 0 0 0 6.65 1.54 10.58 10.58 0 0 0 2.48-.17c.18 0 .34-.09.5-.13a4.15 4.15 0 0 0 .46-.15l.4-.17.35-.18a3.61 3.61 0 0 0 .54-.36l.21-.15.16-.15c.18-.18.28-.26.28-.26l-.27.27-.16.15-.2.16a3.28 3.28 0 0 1-.55.36l-.33.22-.41.17a3 3 0 0 1-.45.15 4.25 4.25 0 0 1-.51.14 9.66 9.66 0 0 1-2.5.18 22.18 22.18 0 0 1-6.67-1.51 50.79 50.79 0 0 1-8.17-4 77.64 77.64 0 0 1-9-6.33 88 88 0 0 1-9.26-8.61c-1.51-1.63-3-3.37-4.43-5.21a55.71 55.71 0 0 1-4-5.91 29.72 29.72 0 0 1-3-6.75 12.47 12.47 0 0 1-.52-3.76 7.13 7.13 0 0 1 .32-1.89 5.39 5.39 0 0 1 1-1.69 5.14 5.14 0 0 1 1.56-1.14 7.13 7.13 0 0 1 1.85-.54 12.66 12.66 0 0 1 3.79.09 29.86 29.86 0 0 1 7.05 2.22 54 54 0 0 1 6.32 3.32c2 1.2 3.89 2.48 5.68 3.81a87.87 87.87 0 0 1 9.61 8.22 77.35 77.35 0 0 1 7.32 8.24 50.53 50.53 0 0 1 4.89 7.65 22.13 22.13 0 0 1 2.27 6.46 9.94 9.94 0 0 1 .1 2.51 3.89 3.89 0 0 1-.08.51 2.17 2.17 0 0 1-.1.47l-.12.43a3 3 0 0 1-.15.36 2.6 2.6 0 0 1-.3.58 1.26 1.26 0 0 1-.13.23l-.13.17Z" style="fill:#07f"/><path d="M322.55 114.93v-.59c0-.08 0-.16-.05-.26a3.15 3.15 0 0 0-.17-.63c0-.11-.08-.24-.13-.36l-.2-.4a2.18 2.18 0 0 0-.24-.41 3.61 3.61 0 0 0-.29-.43 9.32 9.32 0 0 0-1.74-1.78 22.21 22.21 0 0 0-6-3.28 50.31 50.31 0 0 0-8.74-2.43A77.52 77.52 0 0 0 294 103.1a90.23 90.23 0 0 0-12.63.27c-2.21.21-4.47.52-6.76.95a53.29 53.29 0 0 0-6.91 1.73 29 29 0 0 0-6.7 3 12.21 12.21 0 0 0-2.85 2.42 6.76 6.76 0 0 0-1 1.59 5.07 5.07 0 0 0-.4 1.84 5.32 5.32 0 0 0 .39 1.84 7.1 7.1 0 0 0 1 1.59 12.54 12.54 0 0 0 2.86 2.43 29.62 29.62 0 0 0 6.7 3 56.75 56.75 0 0 0 6.91 1.73c2.29.43 4.55.73 6.76.94a88.85 88.85 0 0 0 12.63.28 80.59 80.59 0 0 0 11-1.2 50.31 50.31 0 0 0 8.74-2.43 22.77 22.77 0 0 0 6-3.28 9.62 9.62 0 0 0 1.74-1.78 3.7 3.7 0 0 0 .29-.44 2.18 2.18 0 0 0 .24-.41l.2-.39c.05-.13.09-.25.13-.37a3 3 0 0 0 .17-.63c0-.09 0-.17.05-.25v-.6.86a3.06 3.06 0 0 1-.16.63c0 .12-.08.24-.13.37l-.19.4a3.7 3.7 0 0 1-.24.42 4.65 4.65 0 0 1-.29.43 9.38 9.38 0 0 1-1.74 1.8 22.13 22.13 0 0 1-6 3.31 50.08 50.08 0 0 1-8.75 2.46 79 79 0 0 1-11 1.28 88.86 88.86 0 0 1-12.64-.26c-2.22-.21-4.49-.51-6.78-.94a57.52 57.52 0 0 1-6.93-1.73 29.43 29.43 0 0 1-6.73-3 12.49 12.49 0 0 1-2.89-2.45 7.08 7.08 0 0 1-1-1.63 4.61 4.61 0 0 1 0-3.8 7.44 7.44 0 0 1 1-1.63A12.74 12.74 0 0 1 261 109a29.7 29.7 0 0 1 6.74-3 53.84 53.84 0 0 1 6.92-1.73 75.5 75.5 0 0 1 6.78-.94A88.92 88.92 0 0 1 294 103a77.46 77.46 0 0 1 11 1.29 49.74 49.74 0 0 1 8.75 2.45 22.13 22.13 0 0 1 6 3.31 9.67 9.67 0 0 1 1.74 1.8 3.7 3.7 0 0 1 .29.44 3 3 0 0 1 .24.42l.19.39c.05.13.09.26.13.37a3.14 3.14 0 0 1 .16.64v.47c.05.22.05.35.05.35Z" style="fill:#07f"/><path d="m310.53 87.66-.33-.21-.18-.12a1.67 1.67 0 0 0-.23-.11 3.1 3.1 0 0 0-.6-.25c-.12 0-.24-.09-.37-.12l-.43-.09a3.54 3.54 0 0 0-.47-.07 4.41 4.41 0 0 0-.52 0 10 10 0 0 0-2.48.28 22.59 22.59 0 0 0-6.26 2.73 49.59 49.59 0 0 0-7.27 5.42 78 78 0 0 0-7.7 7.86 88.78 88.78 0 0 0-7.51 10.15 90.794 90.794 0 0 0-3.4 5.87 54 54 0 0 0-2.87 6.52 30.09 30.09 0 0 0-1.71 7.15 12.36 12.36 0 0 0 .17 3.74 7.11 7.11 0 0 0 .65 1.77 5.05 5.05 0 0 0 1.21 1.44 5.18 5.18 0 0 0 1.69.81 6.91 6.91 0 0 0 1.87.19 12.45 12.45 0 0 0 3.67-.77 29.68 29.68 0 0 0 6.5-3.44 54.59 54.59 0 0 0 5.6-4.4 76.38 76.38 0 0 0 4.89-4.77 89.82 89.82 0 0 0 7.95-9.81 78 78 0 0 0 5.7-9.41 50.18 50.18 0 0 0 3.44-8.39 22.41 22.41 0 0 0 1.07-6.75 9.3 9.3 0 0 0-.34-2.46c0-.18-.11-.34-.16-.5s-.11-.3-.18-.44l-.19-.39c-.07-.12-.15-.23-.21-.33a2.94 2.94 0 0 0-.4-.52l-.16-.2-.16-.14-.28-.26.29.25.16.14a1.62 1.62 0 0 1 .17.19 3.22 3.22 0 0 1 .4.52c.07.11.15.21.22.33l.19.4a2.53 2.53 0 0 1 .19.44c.05.16.12.32.16.5a9.27 9.27 0 0 1 .36 2.47 22.12 22.12 0 0 1-1.05 6.77 51.05 51.05 0 0 1-3.42 8.42 78.15 78.15 0 0 1-5.7 9.43 87.89 87.89 0 0 1-7.95 9.83 71.83 71.83 0 0 1-4.9 4.79 55.09 55.09 0 0 1-5.61 4.41 29.51 29.51 0 0 1-6.53 3.46 12.66 12.66 0 0 1-3.71.78 7.32 7.32 0 0 1-1.92-.19 5.42 5.42 0 0 1-1.74-.85 5.22 5.22 0 0 1-1.25-1.48 7.3 7.3 0 0 1-.67-1.81 12.64 12.64 0 0 1-.16-3.78 29.61 29.61 0 0 1 1.72-7.19 54.17 54.17 0 0 1 2.87-6.53c1.07-2.08 2.22-4.06 3.41-5.94a90.09 90.09 0 0 1 7.54-10.15 77 77 0 0 1 7.72-7.85 50.47 50.47 0 0 1 7.3-5.42 22.42 22.42 0 0 1 6.29-2.7 9.63 9.63 0 0 1 2.49-.28h.52a3.46 3.46 0 0 1 .48.07l.43.09.37.13a3.08 3.08 0 0 1 .6.26 1.67 1.67 0 0 1 .23.11l.18.13ZM256.35 128.52a1.22 1.22 0 1 1-1.73 0 1.22 1.22 0 0 1 1.73 0ZM325.34 90.63a1.23 1.23 0 1 1-1.23-1.22 1.22 1.22 0 0 1 1.23 1.22ZM264.07 132.54a.31.31 0 1 1-.31-.31.31.31 0 0 1 .31.31ZM270.7 98.28a.31.31 0 1 1-.31-.31.31.31 0 0 1 .31.31ZM319.19 114.93a.31.31 0 0 1-.31.31.31.31 0 1 1 0-.62.31.31 0 0 1 .31.31ZM323.51 100.45a.31.31 0 0 1-.62 0 .31.31 0 0 1 .62 0Z" style="fill:#07f"/><path d="M302.57 121.76h-3.84v-20.91a8.93 8.93 0 1 0-17.86 0v20.91H277v-20.91a12.77 12.77 0 1 1 25.54 0Z" style="fill:#07f"/><path d="M302.57 121.76h-3.84v-20.91a8.93 8.93 0 1 0-17.86 0v20.91H277v-20.91a12.77 12.77 0 1 1 25.54 0Z" style="opacity:.30000000000000004"/><rect x="272.59" y="112.46" width="34.42" height="22.08" rx="2.25" style="fill:#07f"/><path d="M292.68 120.63a2.88 2.88 0 1 0-3.66 2.75v4.3h1.56v-4.3a2.86 2.86 0 0 0 2.1-2.75Z" style="opacity:.30000000000000004"/><path d="M274.43 132.45c-.08 0-.15-3.68-.15-8.22s.07-8.23.15-8.23.14 3.68.14 8.23-.07 8.22-.14 8.22ZM287.55 124.31s-.14 0-.34-.19a3.48 3.48 0 0 1-.74-.75 4 4 0 0 1 1.43-6.05 3.42 3.42 0 0 1 1-.35 1.06 1.06 0 0 1 .39 0 10.1 10.1 0 0 0-1.29.54 4 4 0 0 0-1.37 5.76 8.63 8.63 0 0 0 .92 1.04Z" style="fill:#fafafa"/><rect x="225.61" y="153.47" width="124.61" height="19.78" rx="9.32" style="fill:#f5f5f5"/><rect x="226.52" y="180.59" width="124.61" height="19.78" rx="9.32" style="fill:#f5f5f5"/><path d="M245.3 163.2v-2.86h1.19v2.82c0 1 .42 1.37 1.14 1.37s1.14-.4 1.14-1.37v-2.82h1.17v2.86a2.32 2.32 0 1 1-4.64 0ZM250.65 165.09l.37-.82a2.7 2.7 0 0 0 1.37.38c.53 0 .72-.14.72-.36 0-.64-2.37 0-2.37-1.55 0-.75.67-1.28 1.82-1.28a3.21 3.21 0 0 1 1.51.35l-.38.81a2.21 2.21 0 0 0-1.13-.29c-.51 0-.73.16-.73.36 0 .67 2.37 0 2.37 1.57 0 .73-.67 1.25-1.85 1.25a3.35 3.35 0 0 1-1.7-.42ZM258.74 163.81h-3a1.05 1.05 0 0 0 1.13.79 1.35 1.35 0 0 0 1-.38l.61.66a2.08 2.08 0 0 1-1.62.63 2 2 0 0 1-2.25-2 2 2 0 0 1 2.1-2 2 2 0 0 1 2.05 2c0 .08-.02.2-.02.3Zm-3-.67h1.93a1 1 0 0 0-1.93 0ZM262 161.46v1.06h-.26a1 1 0 0 0-1 1.1v1.85h-1.14v-3.93h1.09v.46a1.57 1.57 0 0 1 1.31-.54ZM266.66 163.2v2.25h-1.14v-2.07c0-.64-.29-.93-.8-.93s-.94.34-.94 1.06v1.94h-1.14v-3.93h1.09v.48a1.74 1.74 0 0 1 1.3-.52 1.54 1.54 0 0 1 1.63 1.72ZM271.17 163.21v2.24h-1.07V165a1.29 1.29 0 0 1-1.2.55c-.92 0-1.47-.51-1.47-1.19s.49-1.18 1.69-1.18h.88c0-.48-.29-.77-.91-.77a1.89 1.89 0 0 0-1.13.37l-.41-.8a3 3 0 0 1 1.7-.48c1.22-.04 1.92.5 1.92 1.71Zm-1.14 1v-.4h-.78c-.54 0-.7.2-.7.46s.24.48.64.48a.84.84 0 0 0 .81-.54ZM278.84 163.2v2.25h-1.14v-2.07c0-.64-.28-.93-.74-.93s-.87.33-.87 1v2H275v-2.07c0-.64-.27-.93-.75-.93s-.86.33-.86 1v2h-1.19v-3.93h1.09v.48a1.58 1.58 0 0 1 1.23-.52 1.49 1.49 0 0 1 1.3.65 1.74 1.74 0 0 1 1.42-.65 1.52 1.52 0 0 1 1.6 1.72ZM283.74 163.81h-3a1 1 0 0 0 1.12.79 1.36 1.36 0 0 0 1-.38l.6.66a2.06 2.06 0 0 1-1.62.63 2 2 0 0 1-2.24-2 2 2 0 0 1 2.1-2 2 2 0 0 1 2 2c.06.08.05.2.04.3Zm-3-.67h1.94a.94.94 0 0 0-1-.81.92.92 0 0 0-.93.81ZM291.28 163.45c0 1.31-.6 2.06-1.5 2.06a1 1 0 0 1-1-.64 1.39 1.39 0 0 1-1.25.64 1.86 1.86 0 0 1 0-3.7 1.38 1.38 0 0 1 1.12.49v-.43h1v2.36c0 .35.15.47.35.47s.54-.39.54-1.23a2.49 2.49 0 0 0-2.72-2.51 2.65 2.65 0 1 0 0 5.3 3.42 3.42 0 0 0 1.44-.32l.23.67a3.87 3.87 0 0 1-1.67.35 3.35 3.35 0 1 1 0-6.69 3.2 3.2 0 0 1 3.46 3.18Zm-2.61.21a.9.9 0 0 0-.92-1 1 1 0 0 0 0 2 .9.9 0 0 0 .92-1ZM298.73 163.2v2.25h-1.14v-2.07c0-.64-.28-.93-.74-.93s-.87.33-.87 1v2h-1.14v-2.07c0-.64-.27-.93-.75-.93s-.86.33-.86 1v2h-1.14v-3.93h1.09v.48a1.58 1.58 0 0 1 1.23-.52 1.49 1.49 0 0 1 1.3.65 1.73 1.73 0 0 1 1.41-.65 1.52 1.52 0 0 1 1.61 1.72ZM303.23 163.21v2.24h-1.06V165a1.29 1.29 0 0 1-1.2.55c-.92 0-1.47-.51-1.47-1.19s.49-1.18 1.69-1.18h.9c0-.48-.29-.77-.9-.77a1.84 1.84 0 0 0-1.13.37l-.41-.8a3 3 0 0 1 1.69-.48c1.2-.04 1.89.5 1.89 1.71Zm-1.14 1v-.4h-.78c-.53 0-.7.2-.7.46s.24.48.64.48a.84.84 0 0 0 .84-.54ZM304.13 160.34a.65.65 0 0 1 .71-.64.64.64 0 1 1-.71.64Zm.14 1.18h1.13v3.93h-1.13ZM306.47 160h1.14v5.42h-1.14ZM308.39 164.8a.71.71 0 0 1 1.42 0 .71.71 0 1 1-1.42 0ZM310.24 163.49a2 2 0 0 1 2.19-2 1.79 1.79 0 0 1 1.76 1l-.88.47a1.05 1.05 0 1 0-.89 1.64 1 1 0 0 0 .89-.54l.88.48a1.81 1.81 0 0 1-1.76 1 2 2 0 0 1-2.19-2.05ZM314.51 163.49a2.16 2.16 0 1 1 2.16 2 2 2 0 0 1-2.16-2Zm3.16 0a1 1 0 1 0-1 1.09 1 1 0 0 0 1-1.09ZM326.23 163.2v2.25h-1.14v-2.07c0-.64-.29-.93-.75-.93s-.87.33-.87 1v2h-1.14v-2.07c0-.64-.27-.93-.74-.93s-.86.33-.86 1v2h-1.14v-3.93h1.08v.48a1.6 1.6 0 0 1 1.24-.52 1.46 1.46 0 0 1 1.29.65 1.76 1.76 0 0 1 1.42-.65 1.52 1.52 0 0 1 1.61 1.72ZM260.57 190.59l1.85 1-.83 1.39-1.87-1.1v2.06h-1.6v-2.08l-1.81 1.14-.82-1.39 1.86-1-1.86-1 .82-1.39 1.87 1.12v-2.07h1.6v2.07l1.87-1.12.83 1.39ZM268.28 190.59l1.85 1-.83 1.41-1.87-1.1v2.06h-1.59v-2.08L264 193l-.82-1.39 1.85-1-1.85-1 .82-1.39 1.87 1.12v-2.07h1.59v2.07l1.87-1.12.83 1.39ZM276 190.59l1.85 1L277 193l-1.86-1.1v2.06h-1.6v-2.08l-1.82 1.12-.81-1.39 1.85-1-1.85-1 .81-1.39 1.87 1.12v-2.07h1.6v2.07l1.86-1.12.84 1.39ZM283.69 190.59l1.85 1-.83 1.39-1.87-1.1v2.06h-1.6v-2.08l-1.81 1.14-.82-1.39 1.86-1-1.86-1 .82-1.39 1.87 1.12v-2.07h1.6v2.07l1.87-1.12.83 1.39ZM291.4 190.59l1.85 1-.83 1.39-1.87-1.1v2.06H289v-2.08l-1.86 1.14-.82-1.39 1.85-1-1.85-1 .82-1.39 1.86 1.08v-2.07h1.59v2.07l1.87-1.12.83 1.39ZM299.11 190.59l1.85 1-.83 1.39-1.87-1.1v2.06h-1.6v-2.08l-1.82 1.14-.81-1.39 1.85-1-1.85-1 .81-1.39 1.87 1.12v-2.07h1.6v2.07l1.87-1.12.83 1.39ZM306.81 190.59l1.85 1-.83 1.39-1.87-1.1v2.06h-1.6v-2.08l-1.81 1.14-.82-1.39 1.86-1-1.86-1 .82-1.39 1.87 1.12v-2.07H306v2.07l1.87-1.12.83 1.39ZM314.52 190.59l1.85 1-.83 1.39-1.87-1.1v2.06h-1.59v-2.08l-1.82 1.14-.82-1.39 1.85-1-1.85-1 .82-1.39 1.87 1.12v-2.07h1.59v2.07l1.87-1.12.83 1.39Z" style="fill:#263238"/><path d="M223.7 135.35h-77.9a4.05 4.05 0 0 0-4.05 4.06v35.48a4 4 0 0 0 4.05 4.05h32.68l6.94 8.91 5.79-8.91h32.49a4.05 4.05 0 0 0 4.05-4.05v-35.48a4.06 4.06 0 0 0-4.05-4.06Z" style="fill:#fff"/><path d="M223.7 135.35h.38a4.22 4.22 0 0 1 1.11.25 4 4 0 0 1 1.54 1 4.06 4.06 0 0 1 1.07 2.4c.08 3.86.06 9.48.09 16.6V174a9.63 9.63 0 0 1-.08 1.76 4.3 4.3 0 0 1-.74 1.68 4.25 4.25 0 0 1-3.23 1.74h-32.68l.2-.1c-1.82 2.79-3.78 5.82-5.78 8.9l-.19.29-.22-.27-6.94-8.9.2.1h-33.14a4.33 4.33 0 0 1-3.71-3.34 7.67 7.67 0 0 1-.11-1.7v-34.75a4.25 4.25 0 0 1 .29-1.54 4.34 4.34 0 0 1 2-2.28 4.24 4.24 0 0 1 1.47-.44 14.8 14.8 0 0 1 1.48 0H185.34l28 .08 7.61.05h2.68-2.68l-7.61.05-28 .08h-39.98a3.71 3.71 0 0 0-1.3.4 3.81 3.81 0 0 0-1.81 2 3.75 3.75 0 0 0-.26 1.37v34.76a6.88 6.88 0 0 0 .09 1.59 3.81 3.81 0 0 0 3.27 2.93c.51.05 1.1 0 1.65 0h31.6l.08.1 6.94 8.9h-.41l5.79-8.9.07-.11h32.8a3.77 3.77 0 0 0 2.93-1.56 3.73 3.73 0 0 0 .68-1.52 9.44 9.44 0 0 0 .08-1.69v-18.4c0-7.1 0-12.72.05-16.59a4 4 0 0 0-1-2.25 4.05 4.05 0 0 0-1.49-1.05 5 5 0 0 0-1.42-.04Z" style="fill:#263238"/><path d="M170.16 145.37v1.31h-.85v-1.32l-1.44-2.36h.91l1 1.64 1-1.64h.84ZM171.58 144.83a2 2 0 1 1 2 1.91 1.91 1.91 0 0 1-2-1.91Zm3.18 0a1.16 1.16 0 1 0-1.16 1.17 1.13 1.13 0 0 0 1.16-1.17ZM176.25 145.05V143h.86v2c0 .7.31 1 .82 1s.83-.29.83-1v-2h.85v2.07a1.68 1.68 0 1 1-3.36 0ZM182.82 146.68l-.71-1h-.79v1h-.86V143h1.6c1 0 1.61.51 1.61 1.34a1.2 1.2 0 0 1-.76 1.17l.83 1.19Zm-.8-3h-.7V145h.7c.52 0 .78-.25.78-.65s-.26-.68-.8-.68ZM185.62 144.83a2 2 0 0 1 3.54-1.26l-.55.51a1.19 1.19 0 0 0-.94-.44 1.19 1.19 0 0 0 0 2.37 1.18 1.18 0 0 0 .94-.43l.55.5a2 2 0 0 1-3.54-1.25ZM189.43 144.83a2 2 0 1 1 2 1.91 1.91 1.91 0 0 1-2-1.91Zm3.18 0a1.16 1.16 0 1 0-1.16 1.18 1.13 1.13 0 0 0 1.16-1.18ZM194.13 143h1.69a1.86 1.86 0 1 1 0 3.7h-1.69Zm1.64 3a1.15 1.15 0 1 0 0-2.3H195v2.3ZM201.38 146v.69h-2.87V143h2.8v.68h-1.95v.81h1.72v.67h-1.72v.84Z" style="fill:#263238"/><rect x="149.86" y="150.57" width="69.79" height="20.34" rx="3.55" style="fill:#f5f5f5"/><path d="M164 162a3 3 0 0 1-3.28 3c-2.58 0-3.95-1.86-3.95-4.94 0-3.34 1.77-5.05 4.38-5.05a4.38 4.38 0 0 1 2.23.5l-.29.58a3.69 3.69 0 0 0-1.94-.45c-2.21 0-3.66 1.45-3.66 4.31a7.83 7.83 0 0 0 .08 1.18 3.09 3.09 0 0 1 3.14-2c2.01-.07 3.29 1.08 3.29 2.87Zm-.72 0c0-1.41-1-2.32-2.67-2.32a2.48 2.48 0 0 0-2.73 2.35c0 1.15 1 2.31 2.82 2.31a2.33 2.33 0 0 0 2.62-2.34ZM177.11 162.16h-2.06v2.73h-.71v-2.73h-5.61v-.52l5.35-6.6h.8l-5.25 6.48h4.73v-2.4h.69v2.4h2.06ZM188.05 162.11c0 1.64-1.18 2.85-3.45 2.85a4.72 4.72 0 0 1-3.47-1.33l.36-.55a4.21 4.21 0 0 0 3.11 1.21c1.77 0 2.72-.84 2.72-2.18s-.9-2.18-2.87-2.18h-.62v-.52l2.91-3.73h-5.25V155h6.18v.5l-3 3.79c2.33.09 3.38 1.22 3.38 2.82ZM200 155v.5l-4.23 9.35h-.79l4.19-9.21h-5.53v1.89h-.7V155ZM205 160c0-3.08 1.59-5 3.85-5s3.86 1.91 3.86 5-1.59 5-3.86 5-3.85-2-3.85-5Zm7 0c0-2.74-1.28-4.33-3.14-4.33s-3.14 1.59-3.14 4.33 1.28 4.33 3.14 4.33S212 162.7 212 160Z" style="fill:#07f"/><path d="M419.4 417.52c13.09-5.56 28.25-16.49 35-29.9a74.62 74.62 0 0 0-35 29.9M422.19 396.71c13.09-5.55 28.25-16.48 35-29.89a74.51 74.51 0 0 0-35 29.89M426 376.48c13.1-5.56 28.25-16.49 35-29.89a74.54 74.54 0 0 0-35 29.89M430.72 355.3c12.35-7.3 26.12-20.3 31.28-34.48a77 77 0 0 0-31.25 34.48M435.8 339.09c9-11.77 17.39-29.29 17.28-44.47a82.7 82.7 0 0 0-17.28 44.47M433.28 346.8c-1.82-15.92-8-35.93-18.52-47.87a97.27 97.27 0 0 0 18.52 47.87M429.05 364.21c-3.2-16.41-11.3-36.71-23.24-48.22a101 101 0 0 0 23.24 48.22M424.19 385.44C421 369 412.88 348.73 401 337.22a101 101 0 0 0 23.24 48.22M420.29 411.51c-3.21-16.41-11.31-36.71-23.24-48.22a101 101 0 0 0 23.24 48.22" style="fill:#263238"/><path d="M436.41 336a.72.72 0 0 0-.1.25c-.07.19-.15.43-.25.73-.22.69-.53 1.64-.91 2.84-.79 2.47-1.85 6.06-3.1 10.52s-2.63 9.79-4.05 15.74-2.82 12.54-4.14 19.48-2.35 13.6-3.22 19.66-1.49 11.54-1.94 16.14-.77 8.34-.93 10.93c-.08 1.26-.14 2.25-.19 3v.78a.86.86 0 0 0 0 .26.82.82 0 0 0 .05-.26c0-.2 0-.46.08-.77.07-.72.17-1.71.29-3 .22-2.57.59-6.3 1.09-10.9s1.19-10.06 2.05-16.11 2-12.69 3.26-19.63 2.72-13.51 4.09-19.47 2.73-11.29 3.94-15.76 2.21-8.07 2.94-10.55l.82-2.87c.08-.3.14-.55.2-.75a1 1 0 0 0 .02-.26Z" style="fill:#263238"/><path d="M413 426.18c5.55-11.62 9.59-28 6.87-40.73a72.23 72.23 0 0 0-6.87 40.73M403.79 411.13c5.55-11.63 9.59-28 6.86-40.73a72.13 72.13 0 0 0-6.86 40.73M395.51 395.82c5.55-11.63 9.59-28 6.86-40.73a72.13 72.13 0 0 0-6.86 40.73M387.35 379.31c4.13-12.3 6.2-29.08 2-41.35a72.71 72.71 0 0 0-2 41.35M382 365.79c-.41-13.09-4.26-29.49-12.39-39.16A71 71 0 0 0 382 365.79M384.49 372.28c-9.63-9.08-24.27-18.11-37.43-19.29a72.49 72.49 0 0 0 37.43 19.29M391 386.06c-10.79-8.56-26.83-16.58-40.69-16.61A75.58 75.58 0 0 0 391 386.06M399.1 402.67c-10.79-8.55-26.82-16.58-40.68-16.61a75.58 75.58 0 0 0 40.68 16.61M410.41 421.79c-10.79-8.56-26.83-16.58-40.69-16.62a75.52 75.52 0 0 0 40.69 16.62" style="fill:#455a64"/><path d="M380.78 363.42s0 .07.06.21l.22.62.9 2.35c.79 2 2 5 3.53 8.58 3.08 7.19 7.65 17 13.32 27.54 2.84 5.25 5.69 10.19 8.35 14.62s5.19 8.37 7.36 11.63 4 5.87 5.24 7.65l1.48 2 .39.52c.09.12.14.18.15.17a1.75 1.75 0 0 0-.11-.2l-.35-.55c-.35-.51-.81-1.21-1.4-2.09-1.24-1.81-3-4.45-5.11-7.73s-4.6-7.24-7.26-11.67-5.47-9.38-8.31-14.63C393.57 392 389 382.2 385.81 375a454.67 454.67 0 0 1-3.67-8.51l-1-2.32-.27-.6a.92.92 0 0 0-.09-.15Z" style="fill:#263238"/><path style="fill:#07f" d="M386.58 427.59h55.16v10.63h-5.67l-4.77 30.32h-34.1l-4.91-30.32h-5.71v-10.63z"/><path d="M386.58 438c0-.14 12.26-.26 27.38-.26s27.38.12 27.38.26-12.25.25-27.38.25-27.38-.11-27.38-.25ZM70.61 468.56h-8.95l-3.32-40.31h10.54l1.73 40.31zM148.21 468.56h8.95l3.32-40.31h-10.54l-1.73 40.31z" style="fill:#263238"/><path d="m166.63 433.36-115.24 2.7-3.5-74.43a12.77 12.77 0 0 1 12.76-13.38h98.19a12.78 12.78 0 0 1 12.75 13.66Z" style="fill:#07f"/><path d="M172.54 361.38h-1.27l-3.63.06h-13.36c-11.28 0-26.86-.1-44.06.3-17.21.57-32.81.47-44.08.3-5.64-.09-10.21-.2-13.36-.3l-3.63-.12h-.94a1.25 1.25 0 0 1-.32 0h4.89l13.36.13c11.28.08 26.86.12 44.07-.46 17.21-.39 32.79-.21 44.07-.13l13.36.11 3.63.05h.95ZM89.92 349.41a26.67 26.67 0 0 0-7.48 2.25 26.31 26.31 0 0 0-6.21 4.74 6.9 6.9 0 0 1 1.43-1.86 17.29 17.29 0 0 1 9.92-5.06 6.68 6.68 0 0 1 2.34-.07Z" style="fill:#263238"/><path d="m137.32 214.08 14.08 25.73 20.6-11.54 10 3.31s-25.24 27.42-29.35 28.85-11.89 1.66-16.33-3.91c-4-5.07-15.84-31.67-15.84-31.67Z" style="fill:#ffbe9d"/><path d="M195.31 197.28a1.67 1.67 0 0 0-1.52-.6L184 198a3 3 0 0 0-2.09 1.36l-20.41 31.35 1.56.87 10.86-.34 21.7-33.57Z" style="fill:#263238"/><path d="M188.36 201.35a.7.7 0 1 0 .07-.84.62.62 0 0 0-.07.84Z" style="fill:#fff"/><path d="M195.62 197.67a12 12 0 0 1-1.9.37l-5.2.81-3.59.52a2.05 2.05 0 0 0-1.52.9l-1.16 1.8c-1.61 2.47-3.36 5.18-5.2 8-3.71 5.68-7.09 10.81-9.57 14.51l-2.95 4.42a12.7 12.7 0 0 1-1.15 1.56 10.75 10.75 0 0 1 1-1.68l2.8-4.46c2.39-3.76 5.71-8.92 9.42-14.6 1.86-2.83 3.63-5.53 5.24-8 .41-.61.81-1.21 1.19-1.8a2.54 2.54 0 0 1 1.87-1.08l3.61-.46 5.23-.62a11.94 11.94 0 0 1 1.88-.19Z" style="fill:#455a64"/><path d="M184.73 208.86s-.87-.15-1.35 2.24-2 9.25-2 9.25l-4.58-2.43-5.74.75s-1.25 1.15-.33 1.78 4.54 1.27 4.54 1.27l2.67 3.85-7.67-3.7s-2.56.67-1.81 2.23 5.92 6.45 5.92 6.45l-3.84-.29-4.54-2.78s-1.4.07-.88 1.26 5.28 5.51 5.28 5.51l5.76 2.8s3.15-.25 3.45-1.18a11 11 0 0 0 .38-2.24s1.67-.45 2-1.26a5 5 0 0 0 .11-2.09s2.62.46 2.95-1a16.58 16.58 0 0 0-.22-5.46c-.26-1.13 1.12-11.58 1-11.89s.55-3.76-1.1-3.07Z" style="fill:#ffbe9d"/><path d="M179.76 235.89a3.27 3.27 0 0 1-1.5.46 10.13 10.13 0 0 1-7.27-1.73c-.79-.57-1.18-1-1.13-1.09s1.93 1.43 4.73 2.08 5.14.1 5.17.28ZM178.4 233.82c-.09.13-1.12-.4-2.21-1.3s-1.81-1.79-1.7-1.9 1 .57 2.08 1.45 1.92 1.61 1.83 1.75ZM181.43 228.85c-.09.13-1.11-.39-2.13-1.34s-1.62-1.91-1.5-2 .92.67 1.9 1.58 1.82 1.62 1.73 1.76ZM184.62 224.84c-.16.07-.74-1-1.65-2.19s-1.8-2-1.7-2.16 1.2.54 2.16 1.8a4.52 4.52 0 0 1 1.19 2.55Z" style="fill:#eb996e"/><path d="M188.51 410.3a2 2 0 0 0 0-.95 6.32 6.32 0 0 0-1-2.41 3.85 3.85 0 0 0-.57-.69 1.08 1.08 0 0 0-1.08-.24.76.76 0 0 0-.47.47 1 1 0 0 0 0 .64 6.27 6.27 0 0 0 .5 1c.37.63.68 1.25 1.16 2a1.35 1.35 0 0 0 1.27.57 2.86 2.86 0 0 0 1.23-.54 10.67 10.67 0 0 0 1.8-1.67 10.52 10.52 0 0 0 .72-.93 3.1 3.1 0 0 0 .53-1.06 1 1 0 0 0-.54-1.16 1.21 1.21 0 0 0-1.15.26 7 7 0 0 0-1.2 1.36 9.2 9.2 0 0 0-1.19 2.3 2.22 2.22 0 0 0-.2.92 18.25 18.25 0 0 1 1.71-3 7.38 7.38 0 0 1 1.16-1.22c.23-.16.51-.27.68-.18a.5.5 0 0 1 .22.59 2.74 2.74 0 0 1-.47.86c-.21.3-.44.59-.68.88a11.27 11.27 0 0 1-1.72 1.57 2.28 2.28 0 0 1-1 .44.8.8 0 0 1-.77-.36c-.39-.57-.77-1.28-1.14-1.87-.17-.31-.38-.61-.48-.86s0-.45.15-.53c.43-.17.86.32 1.15.73a9 9 0 0 1 1.38 3.08Z" style="fill:#263238"/><path style="fill:#ffbe9d" d="m163.94 411.14-12.2 26.45-19.69-9.1 12.62-32.73 19.27 15.38z"/><path d="m154 435.82-7.13 13.6s18.25 18.87 16.54 23.09l-42.9-20.57 11.78-27.27Z" style="fill:#455a64"/><path d="M134.54 441.2a2 2 0 0 0-2.17 1.42 1.86 1.86 0 0 0 1.39 2.16 2.05 2.05 0 0 0 2.29-1.51 1.94 1.94 0 0 0-1.7-2.09" style="fill:#e0e0e0"/><g style="opacity:.6000000000000001"><path d="m120.55 451.94 1.78-3.42 40.47 21s1.51 1.74.65 3Z" style="fill:#fff"/></g><path d="M147.71 449.53c-.1.21-1.2-.2-2.55 0s-2.33.8-2.48.62.74-1.23 2.38-1.42 2.79.63 2.65.8ZM151.32 453.55c0 .23-1.13.15-2.26.69s-1.79 1.39-2 1.28.23-1.36 1.66-2 2.69-.17 2.6.03ZM151.29 460.16c-.21 0 0-1.23 1.09-2.12s2.29-.88 2.29-.66-.89.54-1.78 1.28-1.38 1.58-1.6 1.5ZM149.76 444.3c-.18.15-1-.6-2.22-1.09s-2.33-.56-2.35-.79 1.22-.55 2.65 0 2.1 1.76 1.92 1.88ZM158.06 432.29l32.17-80.49s-.73-13.74-3.26-18.07-79.15-29.64-79.15-29.64-19.51-4.7-32.53 0-22.77 21-21 30 9.43 15.67 9.43 15.67l56.35 1.68 30.71 11.2-20.68 59.27Z" style="fill:#263238"/><path style="fill:#ffbe9d" d="m186.67 377.29.73 29.11-21.69.54-3.12-34.94 24.08 5.29z"/><path d="m188.69 403.8-.4 15.35s24.7 8.87 25 13.42l-47.57.48-1.47-29.67Z" style="fill:#455a64"/><path d="M173.56 417.24a1.94 1.94 0 0 0-1.32 2.23 1.87 1.87 0 0 0 2.2 1.33 2.05 2.05 0 0 0 1.38-2.37 1.93 1.93 0 0 0-2.44-1.13" style="fill:#e0e0e0"/><g style="opacity:.6000000000000001"><path d="m165.75 433.05.09-3.86 45.58 1s2.12.9 1.9 2.4Z" style="fill:#fff"/></g><path d="M189.06 418.9c0 .23-1.17.35-2.3 1.11s-1.74 1.74-1.95 1.65.12-1.44 1.51-2.33 2.79-.64 2.74-.43ZM194.07 420.91c.06.23-.95.63-1.73 1.62s-1 2-1.22 2-.4-1.32.6-2.54 2.34-1.3 2.35-1.08ZM197 426.86c-.21.05-.54-1.11 0-2.39s1.67-1.79 1.77-1.6-.57.88-1 1.93-.58 2.03-.77 2.06ZM188.58 413.3c-.09.21-1.16-.1-2.47 0s-2.33.53-2.46.33.85-1 2.4-1.13 2.65.61 2.53.8ZM174 296.45s13-1 14.44 13.06 2.86 79.88 2.86 79.88l-30.3 2.53-4.7-67.23-48.43-20.6s57.46-9.44 66.13-7.64Z" style="fill:#263238"/><path d="M120.46 277.43s7.88 22.11 6.38 24.57-21.77 12.6-21.77 12.6l-50.74 19.49s-5.21-8.29-5.21-21 17.65-35.64 17.65-35.64Z" style="fill:#263238"/><path d="M105.42 303a1.31 1.31 0 0 0 .24.13l.72.33 2.81 1.25 10.55 4.6 36.41 15.67-.17-.23c.46 6.64 1 13.81 1.47 21.23 1.24 17.35 2.38 33.34 3.28 46v.23h.23l22.12-1.94 6.09-.57 1.59-.16.54-.08a3.27 3.27 0 0 0-.55 0l-1.59.1-6.1.45-22.14 1.74.25.21c-.87-12.65-2-28.65-3.16-46-.52-7.42-1-14.59-1.5-21.23v-.16l-.15-.07-36.49-15.5-10.61-4.44-2.84-1.17-.74-.29a1.8 1.8 0 0 0-.26-.1ZM65.07 305.17a7 7 0 0 0 1.43-.38l3.82-1.24a84.31 84.31 0 0 1 12.78-3.23 37.65 37.65 0 0 1 13.09.17c3.3.69 5.2 1.63 5.24 1.52a5.88 5.88 0 0 0-1.32-.67 23.65 23.65 0 0 0-3.83-1.24 35.36 35.36 0 0 0-13.28-.34 71.92 71.92 0 0 0-12.83 3.41c-1.6.57-2.88 1.06-3.77 1.41a8.83 8.83 0 0 0-1.33.59Z" style="fill:#455a64"/><path d="M72.24 293.52a36.49 36.49 0 0 1 4.44 0c1.37.09 3 .3 4.8.51s3.79.46 5.85.85a27 27 0 0 1 9.94 3.69 32.37 32.37 0 0 1 3.45 2.77 4.14 4.14 0 0 0-.74-.95 15.31 15.31 0 0 0-2.49-2.16 25.49 25.49 0 0 0-10.06-3.91c-2.08-.39-4.08-.62-5.89-.81s-3.45-.35-4.84-.39a18.94 18.94 0 0 0-3.28.14 4.23 4.23 0 0 0-1.18.26Z" style="fill:#455a64"/><path d="M94.65 115.88c-5.83-1-11 1.25-15.89 4.54a30.1 30.1 0 0 0-11.84 32.13 23.16 23.16 0 0 0 11.4 14.18c7.59 3.85 17.3 2.51 24.1-2.63s10.67-13.63 11-22.14a28.22 28.22 0 0 0-4.42-16.73 21.42 21.42 0 0 0-14.32-9.35" style="fill:#263238"/><path d="M78.05 135.73c.86-2.24.52-4.73.86-7.1.75-5.21 5-9.39 9.8-11.42 4.52-1.89 10-1.48 15.48.28a20.78 20.78 0 0 1 9.73 6.34 16.33 16.33 0 0 1 3 14.7l-26.66-3.88c-2.5 2.06-5.06 4.17-8.09 5.32a5.55 5.55 0 0 1-2.78.44 2.48 2.48 0 0 1-2.07-1.71c-.24-1.01.36-2 .73-2.97Z" style="fill:#263238"/><path d="m104.76 124.85-23.28 4.94a4.35 4.35 0 0 0-4.06 4.21l.28 50.39a15.71 15.71 0 0 0 3.28 9.5l2.22 2.86c5.07 6.53 15.32 5.87 19.19-1.43a5.48 5.48 0 0 0 .54-1.32c.07-.45.19-.75.21-1.13l.45-4.92c.22-4.48.26-9 .26-9s9.53-1.2 12-13.48c1.21-6.1 1.29-16.19 1.09-24.44-.21-7.39-4.76-16.67-12.18-16.18Z" style="fill:#ffbe9d"/><path d="M113.37 150.53a1.58 1.58 0 0 1-1.59 1.53 1.51 1.51 0 0 1-1.58-1.49 1.6 1.6 0 0 1 1.59-1.54 1.52 1.52 0 0 1 1.58 1.5ZM114.53 146.22c-.21.2-1.37-.73-3.08-.79s-3 .74-3.16.52.12-.46.68-.83a4.32 4.32 0 0 1 2.55-.68 4.15 4.15 0 0 1 2.43.89c.51.43.68.81.58.89ZM98.09 150.14a1.58 1.58 0 0 1-1.59 1.54 1.51 1.51 0 0 1-1.57-1.49 1.58 1.58 0 0 1 1.58-1.54 1.52 1.52 0 0 1 1.58 1.49ZM98.34 145.81c-.21.2-1.37-.74-3.08-.8s-3 .74-3.16.53.12-.46.69-.84a4.41 4.41 0 0 1 2.54-.68 4.22 4.22 0 0 1 2.44.9c.5.42.67.8.57.89ZM103.45 158.77a12.46 12.46 0 0 1 2.79-.39c.44 0 .85-.1.94-.39a2.26 2.26 0 0 0-.24-1.3c-.37-1.07-.76-2.19-1.16-3.37-1.61-4.79-2.75-8.72-2.56-8.78s1.66 3.77 3.26 8.56c.38 1.18.75 2.3 1.1 3.38a2.49 2.49 0 0 1 .16 1.72 1.12 1.12 0 0 1-.74.61 3.4 3.4 0 0 1-.74.07 10.63 10.63 0 0 1-2.81-.11Z" style="fill:#263238"/><path d="M103.85 179a31.39 31.39 0 0 1-16.37-5.05s3.82 8.71 16.23 8ZM102.57 162.85a3.06 3.06 0 0 0-2.71-1.24 2.8 2.8 0 0 0-2 1 1.78 1.78 0 0 0-.22 2 2.07 2.07 0 0 0 2.21.65 6.33 6.33 0 0 0 2.23-1.22 1.8 1.8 0 0 0 .51-.48.58.58 0 0 0 0-.64" style="fill:#eb996e"/><path d="M98.39 159.76c.28 0 .21 1.84 1.74 3.22s3.51 1.25 3.52 1.51c0 .11-.46.34-1.29.33a4.61 4.61 0 0 1-2.94-1.16 4 4 0 0 1-1.34-2.66c-.08-.81.18-1.26.31-1.24ZM98.24 140.75c-.18.46-1.88.17-3.89.33s-3.64.65-3.89.22c-.11-.2.18-.63.85-1.05a6.46 6.46 0 0 1 2.92-.89 6.38 6.38 0 0 1 3 .47c.77.32 1.09.7 1.01.92ZM114.32 138.75c-.31.38-1.47-.07-2.88-.15s-2.62.16-2.88-.25c-.12-.2.09-.58.62-.93a4 4 0 0 1 2.38-.54 4 4 0 0 1 2.27.86c.48.42.63.83.49 1.01Z" style="fill:#263238"/><path d="M73.78 132.13c2.42-7.09 13-16.75 20.42-16.08l11.8 7.39a11.5 11.5 0 0 1-8 8.65c-2.13.6-4.67.73-6 2.52s-.62 4.54-1.85 6.42c-1.71 2.62-6.22 2.4-7.52 5.24-.56 1.24-.31 2.74-.9 4-.78 1.64-5 3.65-6.73 3.07s-1.67-3.53-2.2-5.09a8.1 8.1 0 0 1-.14-5.48c.86-3.51-.03-7.26 1.12-10.64Z" style="fill:#263238"/><path d="M80.12 154.87c0-.92-1-3.13-1.85-3.31-2.41-.47-6.79-.44-7.07 5.72-.38 8.42 8.15 7.06 8.18 6.82s.62-6.05.74-9.23Z" style="fill:#ffbe9d"/><path d="M77 160.8s-.15.09-.41.19a1.46 1.46 0 0 1-1.09 0c-.88-.37-1.56-1.82-1.54-3.33a5 5 0 0 1 .51-2.09 1.7 1.7 0 0 1 1.16-1.07.73.73 0 0 1 .84.44c.1.24 0 .41.09.42s.18-.13.13-.48a.88.88 0 0 0-.3-.54 1.1 1.1 0 0 0-.81-.26 2.08 2.08 0 0 0-1.59 1.24 5 5 0 0 0-.61 2.32c0 1.7.77 3.33 2 3.74a1.59 1.59 0 0 0 1.35-.16c.19-.22.27-.41.27-.42Z" style="fill:#eb996e"/><path d="M72 130c0-2.64-3.26-4.36-5.83-5a11 11 0 0 0-7.59 1.45c-1.35.74-2.71 1.8-3 3.31s1.15 3.31 2.59 2.77a5 5 0 1 0 4.83 8.53 11.14 11.14 0 0 1-4.38 6A12.51 12.51 0 0 0 72 130Z" style="fill:#263238"/><path d="M66.14 143.34a7.5 7.5 0 0 1-.32-2.53 18.54 18.54 0 0 1 3.88-11.5 7.22 7.22 0 0 1 1.78-1.82 27.83 27.83 0 0 0-4.16 7.42c-1.55 4.5-.99 8.44-1.18 8.43Z" style="fill:#07f"/><path d="M103.54 120.9c.77 3.43 6 7.82 8.27 10.49 4.36 5.09 5.22 6.78 5.18 18.17 2.06-3.93 3.64-7.79 3.48-12.22a18.38 18.38 0 0 0-4.88-12.08 14.28 14.28 0 0 0-12-4.36M139.25 214.58s-9.08-15.13-11.6-18.19a20.19 20.19 0 0 0-7.43-5.45 15.58 15.58 0 0 0-3.53-1.05L103.63 187s0 8.91-9.35 9.46S77.09 184 77.09 184 62 186.34 58.4 188.2 49.12 192.41 46 208l-2.19 15.28 26 2.4 2.49 38.64 12.89 9s35.75 9.29 38 9.9 3-57.52 3-57.52 9.26-5.91 13.06-11.12Z" style="fill:#263238"/><path d="M122.13 208.08a5.59 5.59 0 0 1 .51 1.12c.29.73.67 1.8 1.09 3.14a61.12 61.12 0 0 1 2.66 21.72c-.08 1.4-.19 2.53-.31 3.31a5.64 5.64 0 0 1-.21 1.2 5.21 5.21 0 0 1 0-1.22c.05-.78.11-1.91.14-3.31a75.21 75.21 0 0 0-.5-10.9 74.4 74.4 0 0 0-2.14-10.69c-.37-1.35-.7-2.44-.94-3.18a5.83 5.83 0 0 1-.3-1.19Z" style="fill:#455a64"/><path d="m121 271.37-49-10.66-2.26-35-21.77-2s.81 23.92 1.64 31c1.21 10.23 7.25 24.19 10.79 27s62.75 1.53 62.75 1.53Z" style="fill:#ffbe9d"/><path d="M148.81 277.71a1.88 1.88 0 0 1-1.82 1.06 2 2 0 0 1-.47-.09c-1.09-.35-1-2.56-1-2.56l-5.18-.84s-6.75 4.35-9.15 7.23-8.52.55-8.52.55L120.55 272l9.55-8.63s-.58.51.08-1.1 3.65-1 3.65-1c.47-.8 2.43-1.08 2.43-1.08l8.38 1a5.73 5.73 0 0 1 4.19 2.64l3.55 5.61s1.87 4 1.57 5a1.68 1.68 0 0 1-2 1.1s-.41 2.66-1.11 2.75a5.79 5.79 0 0 1-2.07-.5Z" style="fill:#ffbe9d"/><path d="M131 269.77c0 .09 1.12 0 2.91.06a25.45 25.45 0 0 1 6.83 1.28 24 24 0 0 1 3.53 1.51c1 .57 2.06 1 2.39 1.77a1 1 0 0 1-.09 1 1.39 1.39 0 0 1-.63.53 2 2 0 0 1-.74.11s.26.23.8.09a1.48 1.48 0 0 0 .81-.56 1.34 1.34 0 0 0 .2-1.31 2.74 2.74 0 0 0-1-1.18c-.46-.29-.94-.6-1.47-.89a22.53 22.53 0 0 0-3.59-1.58 21.83 21.83 0 0 0-7-1.15 9.45 9.45 0 0 0-2.95.32Z" style="fill:#eb996e"/><path d="M130.4 275.11c0 .16 3.42 0 7.61.26s7.55.76 7.58.6a8.26 8.26 0 0 0-2.18-.53 47.59 47.59 0 0 0-5.37-.6 48.64 48.64 0 0 0-5.41 0 8.17 8.17 0 0 0-2.23.27ZM148.76 277.5a3.59 3.59 0 0 0 .11-.89 19.79 19.79 0 0 0 0-2.46 10.12 10.12 0 0 0-.23-1.7 5.1 5.1 0 0 0-.82-1.82 11.5 11.5 0 0 0-3.14-3.21 15.78 15.78 0 0 0-4-2 14.76 14.76 0 0 0-3.62-.55h-2.44a2.74 2.74 0 0 0-.9.09 28.75 28.75 0 0 0 3.32.28 15.63 15.63 0 0 1 3.5.64 16.85 16.85 0 0 1 3.85 2 11.72 11.72 0 0 1 3 3.06 6.39 6.39 0 0 1 1.09 3.28c.22 1.99.17 3.28.28 3.28Z" style="fill:#eb996e"/><path d="M136.67 262.3c0 .08 1.25.12 3.25.35s5 .43 6.77 3.09a28.34 28.34 0 0 1 4.22 6.57 17.53 17.53 0 0 1 .8 3.14 2.26 2.26 0 0 0 0-.89 8.7 8.7 0 0 0-.49-2.38 24.6 24.6 0 0 0-4.17-6.77 9 9 0 0 0-1.62-1.65 5.68 5.68 0 0 0-2-.92 17.5 17.5 0 0 0-3.55-.57 13.58 13.58 0 0 0-3.21.03Z" style="fill:#eb996e"/><path d="M133 280.73a3.66 3.66 0 0 0 .5-.38l1.4-1.13a57.51 57.51 0 0 1 5.51-3.79h-.12l5.18.88-.18-.22a5.44 5.44 0 0 0 .1 1.27 2.37 2.37 0 0 0 .59 1.25 1.29 1.29 0 0 0 .68.32 2 2 0 0 0 .73 0 2.08 2.08 0 0 0 1.29-.72 1.7 1.7 0 0 0 .23-.3l.05-.09-.3.11.16.06a7.362 7.362 0 0 0 1.38.42 2.34 2.34 0 0 0 .39 0 1 1 0 0 0 .48-.09 1.56 1.56 0 0 0 .5-.69 4.66 4.66 0 0 0 .26-.71 12 12 0 0 0 .33-1.47l-.3.21a2 2 0 0 0 1.93-.66 1.59 1.59 0 0 0 .36-1 5.32 5.32 0 0 0-.18-1 29.78 29.78 0 0 0-1.43-3.73l-1.89-3-1.2-1.89a9.84 9.84 0 0 0-1.31-1.84 5.63 5.63 0 0 0-1.88-1.25 7.17 7.17 0 0 0-2.14-.44l-7.89-.89h-.06a7.11 7.11 0 0 0-1.39.37 2.33 2.33 0 0 0-1.2.84l.29-.09a2.87 2.87 0 0 0-2.69.15 3.36 3.36 0 0 0-1.33 2.12l.06-.11-6.58 5.92-1.77 1.63a3.82 3.82 0 0 0-.59.6 4.85 4.85 0 0 0 .66-.52l1.85-1.55 6.69-5.78h.05v-.07a3 3 0 0 1 1.17-1.85 2.48 2.48 0 0 1 2.27-.09l.18.07.11-.16a2 2 0 0 1 1-.64 6.78 6.78 0 0 1 1.29-.33h-.07l7.89.93a6.92 6.92 0 0 1 2 .42 5 5 0 0 1 1.7 1.13 9.6 9.6 0 0 1 1.24 1.75l1.2 1.9c.65 1 1.29 2 1.89 3a27.26 27.26 0 0 1 1.41 3.64 4.22 4.22 0 0 1 .17.89 1.07 1.07 0 0 1-.25.71 1.44 1.44 0 0 1-1.41.47h-.27v.25a12.58 12.58 0 0 1-.31 1.41 2.55 2.55 0 0 1-.54 1.12.67.67 0 0 1-.21 0h-.32c-.21 0-.43-.1-.65-.16l-.64-.22-.15-.06-.31.11v.06a1.46 1.46 0 0 1-.17.24 1.65 1.65 0 0 1-1 .57 1.37 1.37 0 0 1-.57 0 .88.88 0 0 1-.48-.2 3.24 3.24 0 0 1-.56-2.17v-.19h-.18l-5.2-.81h-.11a50.38 50.38 0 0 0-5.45 3.94c-.6.51-1.05.92-1.35 1.2a2.94 2.94 0 0 0-.54.33Z" style="fill:#eb996e"/><path d="m212.32 245.54-64.47.53c-2.1 0-4.09 1-4.41 3.07l-7 47h-33.26a1.94 1.94 0 0 0 0 3.87h106.08l7.25-49.6a4.24 4.24 0 0 0-4.19-4.87Z" style="fill:#e0e0e0"/><path d="M212.32 245.54a3.57 3.57 0 0 1 1 .1 4.27 4.27 0 0 1 3.26 3.69 11.31 11.31 0 0 1-.24 2.65l-.93 6.55c-1.42 9.85-3.46 24.05-6 41.51v.17h-.17l-102.91.06h-2.77a2.65 2.65 0 0 1-1.46-.28 2.19 2.19 0 0 1 0-3.84 2.68 2.68 0 0 1 1.46-.27h32.84l-.25.22c2.53-16.83 4.9-32.53 7-46.62a3.66 3.66 0 0 1 1.2-2.45 4.81 4.81 0 0 1 2.46-1.09 20.87 20.87 0 0 1 2.6-.09h2.53l9.71-.06 17.25-.11 24.56-.13h8.84-2.27l-6.57.09-24.56.27-17.25.18-9.71.09h-2.53a23.4 23.4 0 0 0-2.53.09 4.35 4.35 0 0 0-2.25 1 3.18 3.18 0 0 0-1.05 2.2c-2.1 14.09-4.44 29.79-7 46.62v.22h-33a2.12 2.12 0 0 0-1.2.2 1.7 1.7 0 0 0-.77 2 1.74 1.74 0 0 0 .76.89 2.23 2.23 0 0 0 1.21.21h2.77l102.91.06-.2.17c2.59-17.45 4.69-31.64 6.15-41.49.37-2.45.7-4.64 1-6.53a11.93 11.93 0 0 0 .27-2.61 4.19 4.19 0 0 0-3.13-3.65 10 10 0 0 0-1.03-.02Z" style="fill:#263238"/><circle cx="177.35" cy="272.18" r="4.04" style="fill:#fff"/><path d="M139 299.57c.09 0 2.14-11.95 4.58-26.72s4.35-26.77 4.26-26.78-2.15 11.95-4.59 26.72-4.33 26.77-4.25 26.78Z" style="fill:#263238"/></svg>