<svg xmlns="http://www.w3.org/2000/svg" width="32" height="32" fill="none" viewBox="0 0 32 32"><g clip-path="url(#a)"><path fill="currentColor" fill-rule="evenodd" d="M16 0C3.2 0 0 3.2 0 16c0 10.26 2.056 14.351 9.462 15.572A1.333 1.333 0 0 1 9.333 31v-1.787a13.333 13.333 0 0 1-6.666-11.546A1.333 1.333 0 0 1 4 16.333h24a1.333 1.333 0 0 1 1.333 1.334 13.332 13.332 0 0 1-6.666 11.546V31c0 .2-.045.395-.13.572C29.945 30.352 32 26.259 32 16 32 3.2 28.8 0 16 0Zm-4 13.573V15H9.333v-1.427a3.32 3.32 0 0 0-.96-2.346A6.014 6.014 0 0 1 6.667 7V5.667h2.666V7a3.32 3.32 0 0 0 .96 2.373 6.013 6.013 0 0 1 1.707 4.2ZM17.333 15v-1.427a6.013 6.013 0 0 0-1.706-4.2A3.32 3.32 0 0 1 14.667 7V5.667H12V7c0 1.569.612 3.076 1.707 4.2a3.32 3.32 0 0 1 .96 2.373V15h2.666Zm5.334-1.427V15H20v-1.427a3.32 3.32 0 0 0-.96-2.373A6.014 6.014 0 0 1 17.333 7V5.667H20V7a3.32 3.32 0 0 0 .96 2.373 6.014 6.014 0 0 1 1.707 4.2Z" clip-rule="evenodd"/></g><defs><clipPath id="a"><path fill="#fff" d="M0 0h32v32H0z"/></clipPath></defs></svg>